<svg width="36" height="36" viewBox="0 0 36 36" fill="none" xmlns="http://www.w3.org/2000/svg">
<circle cx="18" cy="18" r="18" fill="#4B53E8"/>
<path opacity="0.8" d="M32 17.1516C32 18.2195 30.7224 18.9699 29.1609 18.9699H10.8391C9.2776 18.9699 8 18.2195 8 17.1516C8 16.0837 9.2776 15.3333 10.8391 15.3333H29.1609C30.7224 15.3333 32 16.0837 32 17.1516Z" fill="white"/>
<path opacity="0.8" d="M20.7753 25.1818C20.7753 26.2485 19.8532 27 18.7262 27H10.0491C8.92208 27 8 26.2485 8 25.1818C8 24.115 8.92208 23.3635 10.0491 23.3635H18.7262C19.8532 23.3635 20.7753 24.115 20.7753 25.1818Z" fill="white"/>
<path opacity="0.8" d="M24.8 8.66667C24.8 9.64444 23.5874 10.3333 22.1054 10.3333H10.6946C9.21258 10.3333 8 9.64444 8 8.66667C8 7.68889 9.21258 7 10.6946 7H22.1054C23.5874 7 24.8 7.68889 24.8 8.66667Z" fill="white"/>
</svg>
