<svg width="35" height="31" viewBox="0 0 35 31" fill="none" xmlns="http://www.w3.org/2000/svg">
<path d="M3.13335 29.4231C1.56786 28.7763 0.979929 27.0457 1.82708 25.5791L15.9593 1.10088C16.8059 -0.366269 18.1924 -0.366269 19.0395 1.10088L32.8762 25.0676C33.7239 26.5342 33.0435 27.9244 31.3657 28.1553L15.3463 30.3648C13.6674 30.5968 12.9154 29.546 13.6744 28.0318L16.1197 23.1525C16.8781 21.6373 18.2346 21.5288 19.1325 22.9104C20.031 24.292 22.0139 25.4246 23.5399 25.4267C25.0653 25.4299 25.6425 24.2188 24.8215 22.7367L18.9904 12.1983C18.1705 10.7162 16.8599 10.7328 16.0785 12.2357L7.85069 28.0526C7.06874 29.5561 5.14835 30.2558 3.58285 29.608L3.13335 29.4231Z" fill="#3E4EEC"/>
<path d="M33.0975 30.686C34.7918 30.686 35.4856 29.5353 34.6389 28.0676C34.6389 28.0676 32.9142 25.1018 31.703 23.0093L29.1279 24.1675C27.58 24.8554 25.0648 25.4235 23.5399 25.4209C22.0145 25.4182 20.031 24.2894 19.1326 22.9077C18.2346 21.5266 16.8963 21.5507 16.1592 22.935C15.4222 24.3193 13.4328 25.4743 11.7391 25.4743H9.47555C7.78177 25.4743 5.35309 26.3669 4.07889 27.4834L2.60318 28.7175C1.32898 29.8335 1.67318 30.6871 3.36696 30.6871H33.0975V30.686Z" fill="url(#paint0_linear)"/>
<path d="M1.90192 30.686C0.207609 30.686 -0.485613 29.5353 0.36154 28.0687L10.654 10.2651C11.5012 8.79849 13.3879 8.03365 14.8471 8.55049C16.3062 9.06734 16.8604 10.7258 16.0785 12.2293L7.85069 28.0003C7.06928 29.5032 5.0436 30.686 3.34983 30.686H1.90192Z" fill="url(#paint1_linear)"/>
<path d="M18.9904 12.1978C18.17 10.7157 17.4992 9.50241 11.8556 8.2079L15.9593 1.10036C16.8065 -0.366788 18.1924 -0.366788 19.039 1.10036L29.4197 19.0782C30.2663 20.5448 29.9141 22.5753 28.6367 23.5887C27.3582 24.6015 25.642 24.2183 24.8216 22.7356L18.9904 12.1978Z" fill="url(#paint2_linear)"/>
<defs>
<linearGradient id="paint0_linear" x1="1.83369" y1="26.285" x2="35" y2="26.285" gradientUnits="userSpaceOnUse">
<stop stop-color="#3E4EEC"/>
<stop offset="1" stop-color="#46C3FF"/>
</linearGradient>
<linearGradient id="paint1_linear" x1="8.21612" y1="30.6866" x2="8.21612" y2="8.38924" gradientUnits="userSpaceOnUse">
<stop stop-color="#46C3FF"/>
<stop offset="0.9392" stop-color="#3E4EEC"/>
</linearGradient>
<linearGradient id="paint2_linear" x1="13.8572" y1="1.89717" x2="26.9601" y2="24.5922" gradientUnits="userSpaceOnUse">
<stop stop-color="#46C3FF"/>
<stop offset="0.95" stop-color="#3E4EEC"/>
</linearGradient>
</defs>
</svg>
