<svg width="469" height="192" viewBox="0 0 469 192" fill="none" xmlns="http://www.w3.org/2000/svg">
<path d="M185.223 20.8272H197.229V72.7056H185.223V20.8272ZM222.14 73.2985C218.829 73.2985 215.593 72.9032 212.431 72.1127C209.269 71.2727 206.749 70.2352 204.871 69L208.725 60.6994C210.504 61.8358 212.653 62.7746 215.173 63.5157C217.693 64.2074 220.163 64.5533 222.584 64.5533C227.476 64.5533 229.921 63.3428 229.921 60.9218C229.921 59.7854 229.254 58.9702 227.92 58.4761C226.586 57.982 224.536 57.562 221.769 57.2162C218.508 56.7221 215.815 56.1539 213.691 55.5116C211.566 54.8693 209.713 53.7329 208.132 52.1025C206.601 50.472 205.835 48.1498 205.835 45.1359C205.835 42.6161 206.551 40.3928 207.984 38.4659C209.466 36.4895 211.591 34.9579 214.358 33.8709C217.174 32.784 220.484 32.2405 224.289 32.2405C227.105 32.2405 229.897 32.5616 232.663 33.2039C235.48 33.7968 237.802 34.6368 239.63 35.7237L235.776 43.9501C232.268 41.9738 228.439 40.9857 224.289 40.9857C221.818 40.9857 219.966 41.3315 218.73 42.0232C217.495 42.7149 216.878 43.6043 216.878 44.6913C216.878 45.9265 217.545 46.7911 218.879 47.2852C220.213 47.7793 222.337 48.2486 225.252 48.6933C228.513 49.2368 231.181 49.8297 233.256 50.472C235.331 51.0649 237.135 52.1766 238.667 53.807C240.198 55.4375 240.964 57.7103 240.964 60.6253C240.964 63.0957 240.223 65.2944 238.741 67.2213C237.258 69.1482 235.084 70.6551 232.219 71.7421C229.403 72.7797 226.043 73.2985 222.14 73.2985ZM261.512 73.2985C258.201 73.2985 254.965 72.9032 251.803 72.1127C248.641 71.2727 246.121 70.2352 244.243 69L248.097 60.6994C249.876 61.8358 252.025 62.7746 254.545 63.5157C257.065 64.2074 259.535 64.5533 261.956 64.5533C266.848 64.5533 269.293 63.3428 269.293 60.9218C269.293 59.7854 268.626 58.9702 267.292 58.4761C265.958 57.982 263.908 57.562 261.141 57.2162C257.88 56.7221 255.187 56.1539 253.063 55.5116C250.938 54.8693 249.085 53.7329 247.504 52.1025C245.973 50.472 245.207 48.1498 245.207 45.1359C245.207 42.6161 245.923 40.3928 247.356 38.4659C248.838 36.4895 250.963 34.9579 253.73 33.8709C256.546 32.784 259.856 32.2405 263.661 32.2405C266.477 32.2405 269.269 32.5616 272.035 33.2039C274.852 33.7968 277.174 34.6368 279.002 35.7237L275.148 43.9501C271.64 41.9738 267.811 40.9857 263.661 40.9857C261.19 40.9857 259.338 41.3315 258.102 42.0232C256.867 42.7149 256.25 43.6043 256.25 44.6913C256.25 45.9265 256.917 46.7911 258.251 47.2852C259.585 47.7793 261.709 48.2486 264.624 48.6933C267.885 49.2368 270.553 49.8297 272.628 50.472C274.703 51.0649 276.507 52.1766 278.038 53.807C279.57 55.4375 280.336 57.7103 280.336 60.6253C280.336 63.0957 279.595 65.2944 278.113 67.2213C276.63 69.1482 274.456 70.6551 271.591 71.7421C268.774 72.7797 265.415 73.2985 261.512 73.2985ZM327.638 32.8334V72.7056H316.669V67.9624C315.138 69.6917 313.31 71.0257 311.185 71.9644C309.06 72.8538 306.763 73.2985 304.293 73.2985C299.055 73.2985 294.905 71.7915 291.842 68.7776C288.779 65.7638 287.247 61.2923 287.247 55.3634V32.8334H298.808V53.6588C298.808 60.0818 301.501 63.2934 306.887 63.2934C309.653 63.2934 311.877 62.404 313.557 60.6253C315.236 58.7972 316.076 56.1045 316.076 52.5471V32.8334H327.638ZM377.406 52.9177C377.406 53.0659 377.332 54.1035 377.183 56.0304H347.02C347.563 58.5008 348.848 60.4524 350.874 61.8852C352.899 63.3181 355.419 64.0345 358.433 64.0345C360.508 64.0345 362.336 63.738 363.917 63.1451C365.548 62.5028 367.055 61.5147 368.438 60.1807L374.589 66.8507C370.834 71.1492 365.35 73.2985 358.137 73.2985C353.641 73.2985 349.663 72.4338 346.205 70.7045C342.746 68.9259 340.078 66.4802 338.201 63.3675C336.323 60.2548 335.384 56.7221 335.384 52.7695C335.384 48.8662 336.298 45.3583 338.126 42.2456C340.004 39.0835 342.548 36.6378 345.76 34.9085C349.021 33.1298 352.652 32.2405 356.654 32.2405C360.558 32.2405 364.09 33.0804 367.252 34.7603C370.415 36.4401 372.885 38.8611 374.664 42.0232C376.492 45.1359 377.406 48.7674 377.406 52.9177ZM356.729 40.9857C354.11 40.9857 351.911 41.7268 350.133 43.209C348.354 44.6913 347.267 46.717 346.872 49.2862H366.511C366.116 46.7664 365.029 44.7654 363.25 43.2831C361.472 41.7515 359.298 40.9857 356.729 40.9857Z" fill="#46C3FF"/>
<path d="M207.678 110.827C212.273 110.827 216.251 111.593 219.611 113.125C223.02 114.656 225.638 116.83 227.466 119.647C229.294 122.463 230.209 125.798 230.209 129.652C230.209 133.456 229.294 136.791 227.466 139.657C225.638 142.473 223.02 144.647 219.611 146.179C216.251 147.661 212.273 148.402 207.678 148.402H197.229V162.706H185.223V110.827H207.678ZM207.011 138.619C210.618 138.619 213.36 137.853 215.238 136.322C217.115 134.741 218.054 132.517 218.054 129.652C218.054 126.737 217.115 124.513 215.238 122.982C213.36 121.401 210.618 120.61 207.011 120.61H197.229V138.619H207.011ZM237.965 122.833H249.526V162.706H237.965V122.833ZM243.746 117.275C241.621 117.275 239.892 116.657 238.558 115.422C237.224 114.187 236.557 112.655 236.557 110.827C236.557 108.999 237.224 107.467 238.558 106.232C239.892 104.997 241.621 104.379 243.746 104.379C245.87 104.379 247.599 104.972 248.933 106.158C250.267 107.344 250.934 108.826 250.934 110.605C250.934 112.532 250.267 114.138 248.933 115.422C247.599 116.657 245.87 117.275 243.746 117.275ZM260.256 107.715H271.818V162.706H260.256V107.715ZM301.52 163.298C297.321 163.298 293.541 162.434 290.181 160.705C286.871 158.926 284.277 156.48 282.399 153.367C280.522 150.255 279.583 146.722 279.583 142.769C279.583 138.817 280.522 135.284 282.399 132.171C284.277 129.059 286.871 126.638 290.181 124.908C293.541 123.13 297.321 122.24 301.52 122.24C305.72 122.24 309.475 123.13 312.785 124.908C316.096 126.638 318.69 129.059 320.567 132.171C322.445 135.284 323.383 138.817 323.383 142.769C323.383 146.722 322.445 150.255 320.567 153.367C318.69 156.48 316.096 158.926 312.785 160.705C309.475 162.434 305.72 163.298 301.52 163.298ZM301.52 153.812C304.485 153.812 306.906 152.824 308.783 150.848C310.71 148.822 311.674 146.129 311.674 142.769C311.674 139.41 310.71 136.742 308.783 134.765C306.906 132.74 304.485 131.727 301.52 131.727C298.556 131.727 296.11 132.74 294.183 134.765C292.256 136.742 291.293 139.41 291.293 142.769C291.293 146.129 292.256 148.822 294.183 150.848C296.11 152.824 298.556 153.812 301.52 153.812ZM356.828 160.779C355.692 161.619 354.284 162.261 352.604 162.706C350.973 163.101 349.244 163.298 347.416 163.298C342.673 163.298 338.992 162.088 336.373 159.667C333.804 157.246 332.519 153.689 332.519 148.995V132.616H326.368V123.723H332.519V114.014H344.081V123.723H354.012V132.616H344.081V148.847C344.081 150.527 344.501 151.836 345.341 152.775C346.23 153.664 347.465 154.109 349.046 154.109C350.874 154.109 352.431 153.615 353.715 152.626L356.828 160.779Z" fill="#3E4EEC"/>
<path d="M13.6879 153.304C6.55793 150.357 4.09992 142.099 8.22492 134.955L65.8719 35.105C69.9969 27.96 76.7469 27.96 80.8719 35.105L137.274 132.795C141.399 139.94 138.087 146.708 129.915 147.835L66.265 156.613C58.092 157.74 54.4289 152.628 58.1249 145.252L66.6519 128.232C70.3479 120.856 76.473 119.592 80.264 125.424C84.056 131.256 92.4259 136.035 98.8649 136.046C105.304 136.057 107.304 130.159 103.309 122.941L80.633 81.961C76.639 74.742 70.2559 74.824 66.4489 82.144L33.571 145.356C29.766 152.675 20.8179 156.251 13.6879 153.304Z" fill="#3E4EEC"/>
<path d="M137.209 159C145.459 159 148.837 152.984 144.716 145.837C144.716 145.837 138.435 134.86 133.322 126.031L124.278 130.012C116.74 133.365 105.304 136.078 98.866 136.068C92.428 136.058 84.057 131.267 80.265 125.436C76.474 119.604 70.827 119.575 67.716 125.417C64.6049 131.259 55.311 136 47.061 136H41.507C33.257 136 21.4311 140.482 15.2271 145.92L12.006 148.927C5.80199 154.365 7.47596 158.999 15.726 158.999H137.209V159Z" fill="url(#paint0_linear)"/>
<path d="M9.54104 159C1.29104 159 -2.08396 152.986 2.04104 145.841L43.481 73.976C47.606 66.83 56.019 62.728 62.177 64.911C68.334 67.093 70.257 74.846 66.45 82.165L33.572 145.535C29.764 152.854 19.9 159 11.65 159H9.54104Z" fill="url(#paint1_linear)"/>
<path d="M80.6351 81.9611C76.6411 74.7421 73.3732 68.8361 49.5552 63.3721L65.8732 35.1061C69.9982 27.9611 76.7482 27.9611 80.8732 35.1061L122.684 107.52C126.809 114.665 125.772 124.01 120.379 128.289C114.985 132.567 107.306 130.161 103.311 122.942L80.6351 81.9611Z" fill="url(#paint2_linear)"/>
<defs>
<linearGradient id="paint0_linear" x1="8.25778" y1="140.024" x2="146.474" y2="140.024" gradientUnits="userSpaceOnUse">
<stop stop-color="#3E4EEC"/>
<stop offset="1" stop-color="#46C3FF"/>
</linearGradient>
<linearGradient id="paint1_linear" x1="34.3438" y1="159" x2="34.3438" y2="64.3237" gradientUnits="userSpaceOnUse">
<stop stop-color="#46C3FF"/>
<stop offset="0.9392" stop-color="#3E4EEC"/>
</linearGradient>
<linearGradient id="paint2_linear" x1="58.3811" y1="37.4005" x2="113.292" y2="132.509" gradientUnits="userSpaceOnUse">
<stop stop-color="#46C3FF"/>
<stop offset="0.95" stop-color="#3E4EEC"/>
</linearGradient>
</defs>
</svg>
