<svg width="21" height="22" viewBox="0 0 21 22" fill="none" xmlns="http://www.w3.org/2000/svg">
<path d="M12 5.49998C12 7.98527 9.98528 10 7.5 10C5.01472 10 3 7.98527 3 5.49998C3 3.0147 5.01471 1 7.5 1C9.98529 1 12 3.0147 12 5.49998Z" stroke="white" stroke-width="2"/>
<path d="M4.5 13H7.50001H10.5C12.9853 13 15 15.0147 15 17.5V21C15 21.5523 14.5523 22 14 22C13.4477 22 13 21.5523 13 21V18.5C13 16.567 11.433 15 9.5 15H7.50001H4.45047C3.09711 15 2 16.0971 2 17.4505V21C2 21.5523 1.55228 22 1 22C0.447715 22 0 21.5523 0 21V17.5C0 15.0147 2.01472 13 4.5 13Z" fill="white"/>
<path d="M16.125 13H18C19.6569 13 21 14.3431 21 16V21C21 21.5523 20.5523 22 20 22C19.4477 22 19 21.5523 19 21V18.625V17.25C19 16.1454 18.1046 15.25 17 15.25H16.125C15.5037 15.25 15 14.7463 15 14.125C15 13.5037 15.5037 13 16.125 13Z" fill="white"/>
<path d="M18.5 5.29998C18.5 7.92335 17.0082 9.89399 14.991 10.3826C14.4542 10.5127 14 10.0523 14 9.49999C14 8.94771 14.4687 8.48694 14.9428 8.20358C15.7409 7.7265 16.5 6.69825 16.5 5.29998C16.5 3.9968 15.7638 2.949 14.9791 2.43836C14.493 2.12208 14 1.62989 14 1.05C14 0.470101 14.4781 -0.0139981 15.0386 0.134753C17.0317 0.663696 18.5 2.69729 18.5 5.29998Z" fill="white"/>
</svg>
