<svg width="29" height="24" viewBox="0 0 29 24" fill="none" xmlns="http://www.w3.org/2000/svg">
<path d="M22 14.9867V4.93175C22 4.47703 21.628 4.10498 21.1732 4.10498H20.9626C20.5078 4.10498 19.7637 4.10498 19.309 4.10498H5.44231C5.44231 2.93642 5.44231 1.31 5.44231 1.31C2.23774 1.31 1 3.30781 1 4.67727C1 5.69982 1 7.91871 1 7.91871C1 8.37344 1 9.11753 1 9.57226V17.8438C1 19.3918 2.66528 19.6749 2.66528 19.6749C3.11356 19.7511 3.85236 19.8135 4.30709 19.8135H15.309" stroke="white" stroke-width="2" stroke-miterlimit="10"/>
<path d="M17 17.4253L21.5988 22L28 11" stroke="white" stroke-width="2" stroke-miterlimit="10"/>
<path d="M5.44231 4.14158V14.8435C1.21294 14.8435 1 18.0743 1 18.0743" stroke="white" stroke-width="2" stroke-miterlimit="10"/>
<rect x="8" y="7" width="10" height="2" fill="white"/>
<rect x="8" y="11" width="10" height="2" fill="white"/>
</svg>
